<svg width="33" height="32" viewBox="0 0 33 32" fill="none" xmlns="http://www.w3.org/2000/svg">
<path d="M19.5319 20.2139L21.2541 18.491C21.4861 18.2618 21.7796 18.1049 22.0989 18.0394C22.4183 17.9739 22.7498 18.0025 23.0532 18.1218L25.1521 18.9602C25.4588 19.0847 25.7217 19.2972 25.9077 19.5709C26.0938 19.8447 26.1947 20.1674 26.1978 20.4985V24.3442C26.196 24.5694 26.1487 24.7919 26.0586 24.9983C25.9686 25.2047 25.8378 25.3908 25.674 25.5453C25.5103 25.6998 25.3169 25.8195 25.1057 25.8973C24.8944 25.9751 24.6696 26.0093 24.4448 25.9979C9.73695 25.0826 6.76924 12.6224 6.20799 7.85368C6.18194 7.6195 6.20574 7.38246 6.27784 7.15814C6.34994 6.93383 6.46869 6.72733 6.62629 6.55223C6.78389 6.37713 6.97677 6.23739 7.19223 6.14222C7.40768 6.04704 7.64085 5.99859 7.87637 6.00003H11.5899C11.9212 6.00101 12.2447 6.10115 12.5188 6.28756C12.7928 6.47397 13.0048 6.73814 13.1275 7.04607L13.9656 9.14584C14.0888 9.44817 14.1202 9.78011 14.0559 10.1002C13.9917 10.4203 13.8345 10.7144 13.6042 10.9456L11.882 12.6685C11.882 12.6685 12.8738 19.3832 19.5319 20.2139Z" fill="white"/>
</svg>
